<mxfile host="app.diagrams.net" modified="2024-03-21T11:24:41.877Z" agent="Mozilla/5.0 (X11; Linux x86_64) AppleWebKit/537.36 (KHTML, like Gecko) Chrome/121.0.0.0 Safari/537.36" version="24.0.7" etag="LESPajb7MTn0AE9iXmII" type="github">
  <diagram name="Page-1" id="Pt5XmXkUgXX5CUJL7lyF">
    <mxGraphModel>
      <root>
        <mxCell id="0" />
        <mxCell id="1" parent="0" />
      </root>
    </mxGraphModel>
  </diagram>
</mxfile>
